<svg id="connect" xmlns="http://www.w3.org/2000/svg" viewBox="0 0 2101.85 404.11"><defs><style>.cls-1{fill:#fc1922;}.cls-2{fill:#fff;}</style></defs><title>csr_connect_logo_text_w</title><g id="mark"><path class="cls-1" d="M379.56,59.39H116.3C88.56,59.39,55,87,55,120.65v286c0,36.67,39.85,82,107.05,35.89,41.08-29,.53-0.37.8-0.56l256-180.67V182.62l-299.33,210V130h112v32.67l148-103.23" transform="translate(-55.05 -59.39)"/><path class="cls-1" d="M183.38,462H446.64c27.74,0,61.26-27.57,61.26-61.26v-286c0-36.67-39.85-82-107.05-35.89-41.08,29-.53.37-0.8,0.56L144,260.13V338.8l299.33-210V391.46h-112V358.8L183.38,462" transform="translate(-55.05 -59.39)"/></g><g id="type"><path class="cls-2" d="M833.7,284.58a72.56,72.56,0,0,0-8.53-29.25,65.3,65.3,0,0,0-18.28-21,83.07,83.07,0,0,0-26.08-12.68,112.38,112.38,0,0,0-31.93-4.39q-23.4,0-41.44,9.51a91.38,91.38,0,0,0-30.23,25.35,114.9,114.9,0,0,0-18.53,36.08,138.59,138.59,0,0,0-6.34,41.69,177.45,177.45,0,0,0,5.85,46.8,106.15,106.15,0,0,0,18,37.3,83.88,83.88,0,0,0,30.23,24.62q18,8.78,42.42,8.78a86.71,86.71,0,0,0,58.75-21.94,83.3,83.3,0,0,0,18.77-24.62,100.16,100.16,0,0,0,9.75-31.45h18.53q-2.93,22.43-12.19,40a98,98,0,0,1-23.4,29.5,101.44,101.44,0,0,1-32.18,18.28,114,114,0,0,1-38,6.34q-30.71,0-52.41-11A100.21,100.21,0,0,1,660.87,423a125.18,125.18,0,0,1-20.48-42.66,191,191,0,0,1-6.58-50.46,160.68,160.68,0,0,1,7.56-49.73,121.51,121.51,0,0,1,22.18-41,105.31,105.31,0,0,1,36.08-27.79q21.45-10.24,49.24-10.24a137.92,137.92,0,0,1,38.27,5.12,99.08,99.08,0,0,1,31.69,15.36,80.16,80.16,0,0,1,22.67,26.08q8.78,15.85,10.73,36.81H833.7Z" transform="translate(-55.05 -59.39)"/><path class="cls-2" d="M876.6,332.36a164.71,164.71,0,0,1,7.56-50.46,126.71,126.71,0,0,1,22.18-41.69,105.41,105.41,0,0,1,36.08-28.52q21.45-10.48,49.24-10.48t49.24,10.48A105.48,105.48,0,0,1,1077,240.21a126.84,126.84,0,0,1,22.18,41.69,164.92,164.92,0,0,1,7.56,50.46,167.18,167.18,0,0,1-7.56,50.71A123.59,123.59,0,0,1,1077,424.75,106.59,106.59,0,0,1,1040.91,453q-21.46,10.48-49.24,10.48T942.42,453a106.51,106.51,0,0,1-36.08-28.28,123.47,123.47,0,0,1-22.18-41.69A167,167,0,0,1,876.6,332.36Zm18.53,0a146.55,146.55,0,0,0,6.34,43.15A116.84,116.84,0,0,0,920,412.32a90.13,90.13,0,0,0,30.23,25.6q18,9.51,41.44,9.51t41.44-9.51a90.27,90.27,0,0,0,30.23-25.6,117.18,117.18,0,0,0,18.53-36.81,150,150,0,0,0,0-86.3,117.25,117.25,0,0,0-18.53-36.81,90.27,90.27,0,0,0-30.23-25.6q-18-9.51-41.44-9.51t-41.44,9.51A90.13,90.13,0,0,0,920,252.4a116.92,116.92,0,0,0-18.53,36.81A146.63,146.63,0,0,0,895.13,332.36Z" transform="translate(-55.05 -59.39)"/><path class="cls-2" d="M1130.61,207.06h18.53v53.63h1a80.24,80.24,0,0,1,13.9-25.11,92.29,92.29,0,0,1,47-30.47,107.78,107.78,0,0,1,28.77-3.9q21.94,0,37.3,5.36t25.11,14.14a68.39,68.39,0,0,1,15.36,19.75,91.77,91.77,0,0,1,8,22.18,131.4,131.4,0,0,1,2.92,21.7q0.48,10.49.49,18.28v155h-18.53V299.2q0-9.26-1.46-23.4a71.26,71.26,0,0,0-8.53-27.06q-7.07-12.91-21.45-22.18t-39.73-9.26q-21.46,0-38,7.8a82.38,82.38,0,0,0-28.28,21.7,95.54,95.54,0,0,0-17.8,33.15,139,139,0,0,0-6.09,42.17V457.66h-18.53V207.06Z" transform="translate(-55.05 -59.39)"/><path class="cls-2" d="M1354.39,207.06h18.53v53.63h1a80.24,80.24,0,0,1,13.9-25.11,92.29,92.29,0,0,1,47-30.47,107.78,107.78,0,0,1,28.77-3.9q21.94,0,37.3,5.36T1526,220.71a68.39,68.39,0,0,1,15.36,19.75,91.77,91.77,0,0,1,8,22.18,131.4,131.4,0,0,1,2.92,21.7q0.48,10.49.49,18.28v155H1534.3V299.2q0-9.26-1.46-23.4a71.26,71.26,0,0,0-8.53-27.06q-7.07-12.91-21.45-22.18t-39.73-9.26q-21.46,0-38,7.8a82.38,82.38,0,0,0-28.28,21.7,95.54,95.54,0,0,0-17.8,33.15,139,139,0,0,0-6.09,42.17V457.66h-18.53V207.06Z" transform="translate(-55.05 -59.39)"/><path class="cls-2" d="M1594.75,334.8v2.93a147.94,147.94,0,0,0,5.87,41.93,107.09,107.09,0,0,0,17.35,35.1,82.34,82.34,0,0,0,28.84,23.89q17.35,8.78,40.33,8.78,37.64,0,59.64-19.75t30.31-54.85h18.53q-8.3,43.88-35.83,67.28t-72.89,23.4q-27.79,0-48.51-10a98.57,98.57,0,0,1-34.62-27.3q-13.9-17.3-20.72-41a182.79,182.79,0,0,1-6.83-50.95,178.49,178.49,0,0,1,7.07-50.46,126.66,126.66,0,0,1,21.21-42.42,105,105,0,0,1,35.35-29.25q21.21-11,50-11,26.33,0,46.56,9.75a97.65,97.65,0,0,1,33.88,26.57,118.26,118.26,0,0,1,20.72,39,155.88,155.88,0,0,1,7.07,47.54q0,2.45-.24,5.61c-0.17,2.12-.24,3.82-0.24,5.12H1594.75ZM1779,318.71a150,150,0,0,0-6.84-38.76,96,96,0,0,0-17.35-32.18A86.4,86.4,0,0,0,1727,225.58q-16.39-8.28-37.4-8.29-22.49,0-39.6,8.53a89.42,89.42,0,0,0-28.84,22.43,99.92,99.92,0,0,0-18.08,32.42,151.84,151.84,0,0,0-7.82,38H1779Z" transform="translate(-55.05 -59.39)"/><path class="cls-2" d="M2019.89,284.58a72.56,72.56,0,0,0-8.53-29.25,65.3,65.3,0,0,0-18.28-21A83.07,83.07,0,0,0,1967,221.68a112.38,112.38,0,0,0-31.93-4.39q-23.4,0-41.44,9.51a91.38,91.38,0,0,0-30.23,25.35,114.9,114.9,0,0,0-18.53,36.08,138.59,138.59,0,0,0-6.34,41.69,177.45,177.45,0,0,0,5.85,46.8,106.15,106.15,0,0,0,18,37.3,83.88,83.88,0,0,0,30.23,24.62q18,8.78,42.42,8.78a86.71,86.71,0,0,0,58.75-21.94,83.3,83.3,0,0,0,18.77-24.62,100.16,100.16,0,0,0,9.75-31.45h18.53q-2.93,22.43-12.19,40a98,98,0,0,1-23.4,29.5,101.44,101.44,0,0,1-32.18,18.28,114,114,0,0,1-38,6.34q-30.71,0-52.41-11a100.21,100.21,0,0,1-35.59-29.5,125.18,125.18,0,0,1-20.48-42.66,191,191,0,0,1-6.58-50.46,160.68,160.68,0,0,1,7.56-49.73,121.51,121.51,0,0,1,22.18-41,105.31,105.31,0,0,1,36.08-27.79q21.45-10.24,49.24-10.24a137.92,137.92,0,0,1,38.27,5.12A99.08,99.08,0,0,1,2005,221.68a80.16,80.16,0,0,1,22.67,26.08q8.78,15.85,10.73,36.81h-18.53Z" transform="translate(-55.05 -59.39)"/><path class="cls-2" d="M2156.89,223.15h-54.61v175q0,15.12,3.41,23.89a27.26,27.26,0,0,0,10.48,13.41,37.14,37.14,0,0,0,17.06,5.61,173.76,173.76,0,0,0,23.16.49v16.09a173.58,173.58,0,0,1-27.55-.24,55.24,55.24,0,0,1-23.65-7.31Q2095,444,2088.88,431.82t-5.12-33.64v-175h-46.32V207.06h46.32V129h18.53v78h54.61v16.09Z" transform="translate(-55.05 -59.39)"/></g></svg>